<?xml version="1.0" encoding="utf-8"?>
<!-- Generator: Adobe Illustrator 17.1.0, SVG Export Plug-In . SVG Version: 6.00 Build 0)  -->
<!DOCTYPE svg PUBLIC "-//W3C//DTD SVG 1.1//EN" "http://www.w3.org/Graphics/SVG/1.1/DTD/svg11.dtd">
<svg version="1.1" id="Layer_1" xmlns="http://www.w3.org/2000/svg" xmlns:xlink="http://www.w3.org/1999/xlink" x="0px" y="0px"
	 viewBox="0 0 430.2 56.8" enable-background="new 0 0 430.2 56.8" xml:space="preserve">
<g>
	<g>
		<path fill="#FFFFFF" d="M9.5,41.1L4.9,52.4H2.8l4.5-11H0V36h2v3.8h7.6V41.1z"/>
		<path fill="#FFFFFF" d="M19.3,46.9l4,5.5H21l-5.6-7.7c-0.8,0.5-1.1,1.3-1.1,2.4v5.3h-1.9v-4.5c0-1.1,0.2-2,0.6-2.7
			s0.9-1.2,1.7-1.6l-2.7-3.8h2.2l3.9,5.4l3-5.4h2.2L19.3,46.9z"/>
		<path fill="#FFFFFF" d="M31.4,43.6c0-0.7-0.2-1.2-0.6-1.6c-0.4-0.4-0.9-0.6-1.6-0.6H25v-1.6h4.3c0.9,0,1.6,0.2,2.2,0.5
			s1.1,0.8,1.4,1.4c0.3,0.6,0.5,1.3,0.5,2.1v8.6h-2V43.6z"/>
		<path fill="#FFFFFF" d="M38.9,50.2c0.7,0.3,1.4,0.5,2.2,0.7c0.8,0.2,1.5,0.2,2.2,0.2c1,0,1.9-0.1,2.7-0.4c0.8-0.3,1.4-0.7,1.9-1.3
			c0.5-0.6,0.7-1.3,0.7-2.2v-7.2h1.9v7.4c0,1.2-0.3,2.2-1,3c-0.6,0.8-1.5,1.4-2.6,1.8c-1.1,0.4-2.3,0.6-3.6,0.6
			c-1,0-2.1-0.1-3.2-0.4c-1.1-0.2-2.1-0.6-3.1-1.1V39.9h1.9V50.2z M42.5,47.8c0.1-0.5,0.2-1.1,0.2-1.7v-6.2h1.9v5.9
			c0,0.7-0.1,1.4-0.3,1.9c-0.2,0.5-0.5,1-0.8,1.4l-1.6-0.1C42.1,48.7,42.3,48.3,42.5,47.8z"/>
		<path fill="#FFFFFF" d="M55.2,41.4h-2.3v-1.6h4.3v7h-2V41.4z"/>
		<path fill="#FFFFFF" d="M69.9,50.9v1.5H59.6v-1.6h6.8v-6.3c0-1.1-0.2-1.9-0.7-2.4s-1.3-0.7-2.4-0.7h-3v-1.6h3.1
			c1.6,0,2.9,0.4,3.7,1.2c0.8,0.8,1.3,2,1.3,3.5v6.1L69.9,50.9z"/>
		<path fill="#FFFFFF" d="M86.6,41c0.8,0.8,1.2,2,1.2,3.6v7.7h-2l0-7.9c0-1.1-0.2-1.9-0.7-2.4c-0.5-0.5-1.2-0.7-2.3-0.7h-1.8
			c-0.2,0.4-0.4,0.9-0.6,1.5c-0.1,0.6-0.2,1.2-0.2,1.8V49c0,1.1-0.3,2-0.8,2.6c-0.5,0.6-1.3,0.9-2.4,0.9c-0.3,0-0.7,0-1.2-0.1v-1.6
			c0.2,0,0.5,0,0.7,0c0.6,0,1.1-0.2,1.3-0.5c0.3-0.3,0.4-0.8,0.4-1.5v-4c0-0.6,0.1-1.3,0.3-1.9s0.4-1.2,0.7-1.5H77v-1.6h5.8
			C84.5,39.9,85.8,40.3,86.6,41z"/>
		<path fill="#FFFFFF" d="M92.3,41.4H90v-1.6h4.3v7h-2V41.4z"/>
		<path fill="#FFFFFF" d="M100.4,51.9c-0.8-0.5-1.4-1.2-1.9-2c-0.4-0.9-0.7-1.9-0.7-3v-1.3c0-0.5,0.1-1.1,0.2-1.6
			c0.2-0.5,0.4-1,0.6-1.5s0.6-0.8,0.9-1c0.1,0,0.1-0.1,0.1-0.1l0,0c-0.4,0-1.1,0.2-2.2,0.5l-0.4-1.5c0.8-0.2,1.8-0.4,2.8-0.6
			c1-0.1,2-0.2,2.9-0.2c1.2,0,2.2,0.2,3,0.7c0.8,0.5,1.5,1.1,1.9,2c0.5,0.9,0.7,1.9,0.7,3.1v1.5c0,1.1-0.2,2.1-0.7,3
			c-0.4,0.9-1.1,1.5-1.9,2c-0.8,0.5-1.7,0.7-2.8,0.7C102.1,52.6,101.2,52.4,100.4,51.9z M104.9,50.5c0.5-0.3,0.9-0.8,1.2-1.4
			c0.3-0.6,0.4-1.3,0.4-2.1v-1.5c0-0.8-0.1-1.6-0.4-2.2c-0.3-0.6-0.7-1.1-1.2-1.4c-0.5-0.3-1.1-0.5-1.8-0.5c-0.6,0-1.2,0.2-1.7,0.5
			c-0.5,0.3-0.9,0.8-1.1,1.5c-0.3,0.6-0.4,1.4-0.4,2.2v1.4c0,0.8,0.1,1.5,0.4,2.1c0.3,0.6,0.7,1.1,1.2,1.4s1.1,0.5,1.7,0.5
			C103.8,51,104.4,50.8,104.9,50.5z"/>
		<path fill="#FFFFFF" d="M112.5,41.4H111v-1.6h3.4v12.5h-2V41.4z"/>
		<path fill="#FFFFFF" d="M123.5,43.6c0-0.7-0.2-1.2-0.6-1.6c-0.4-0.4-0.9-0.6-1.6-0.6H117v-1.6h4.3c0.9,0,1.6,0.2,2.2,0.5
			s1.1,0.8,1.4,1.4c0.3,0.6,0.5,1.3,0.5,2.1v8.6h-2V43.6z"/>
		<path fill="#FFFFFF" d="M135.4,41.4h-2.3v-1.6h4.3v7h-2V41.4z"/>
		<path fill="#FFFFFF" d="M146.2,43.6c0-0.7-0.2-1.2-0.6-1.6c-0.4-0.4-0.9-0.6-1.6-0.6h-4.2v-1.6h4.3c0.9,0,1.6,0.2,2.2,0.5
			s1.1,0.8,1.4,1.4c0.3,0.6,0.5,1.3,0.5,2.1v8.6h-2V43.6z"/>
		<path fill="#FFFFFF" d="M160.7,50.9v1.5h-10.3v-1.6h6.8v-6.3c0-1.1-0.2-1.9-0.7-2.4s-1.3-0.7-2.4-0.7h-3v-1.6h3.1
			c1.6,0,2.9,0.4,3.7,1.2c0.8,0.8,1.3,2,1.3,3.5v6.1L160.7,50.9z"/>
		<path fill="#FFFFFF" d="M163.8,41.4h-1.5v-1.6h3.4v12.5h-2V41.4z"/>
		<path fill="#FFFFFF" d="M178.4,39.9v1.6h-2.1v11h-2v-11h-6v-1.6H178.4z"/>
		<path fill="#FFFFFF" d="M195.2,41c0.8,0.8,1.2,2,1.2,3.6v7.7h-2l0-7.9c0-1.1-0.2-1.9-0.7-2.4c-0.5-0.5-1.2-0.7-2.3-0.7h-1.8
			c-0.2,0.4-0.4,0.9-0.6,1.5c-0.1,0.6-0.2,1.2-0.2,1.8V49c0,1.1-0.3,2-0.8,2.6c-0.5,0.6-1.3,0.9-2.4,0.9c-0.3,0-0.7,0-1.2-0.1v-1.6
			c0.2,0,0.5,0,0.7,0c0.6,0,1.1-0.2,1.3-0.5c0.3-0.3,0.4-0.8,0.4-1.5v-4c0-0.6,0.1-1.3,0.3-1.9s0.4-1.2,0.7-1.5h-2.4v-1.6h5.8
			C193.2,39.9,194.4,40.3,195.2,41z"/>
		<path fill="#FFFFFF" d="M208.5,41.1l-4.6,11.3h-2.1l4.5-11H199V36h2v3.8h7.6V41.1z"/>
		<path fill="#FFFFFF" d="M212.2,41.4h-2.3v-1.6h4.3v7h-2V41.4z"/>
		<path fill="#FFFFFF" d="M225.1,44.5c0-1.1-0.2-1.9-0.7-2.4c-0.5-0.5-1.3-0.7-2.4-0.7h-4.5v-1.6h4.6c1.6,0,2.9,0.4,3.7,1.2
			c0.8,0.8,1.3,2,1.3,3.5v7.8h-2V44.5z M217.5,48.1c0-0.6,0-1.2,0.1-1.5c0.1-0.4,0.2-0.7,0.4-1.1h1.6c-0.1,0.3-0.1,0.7-0.2,1.1
			c0,0.4-0.1,0.9-0.1,1.4v4.4h-1.9V48.1z"/>
		<path fill="#FFFFFF" d="M234.9,50.8c0.7,0,1.3-0.2,1.8-0.5c0.5-0.3,0.9-0.7,1.2-1.2s0.4-1.2,0.4-1.9v-5.8h-7.7v-1.6h9.7v7.4
			c0,1-0.2,2-0.7,2.7c-0.5,0.8-1.1,1.4-1.9,1.8s-1.8,0.6-2.9,0.7V50.8z M230.9,47.7c0-0.6,0-1.1,0.1-1.5s0.2-0.7,0.4-1.1h1.6
			c-0.1,0.3-0.2,0.7-0.2,1.1s-0.1,0.9-0.1,1.4v9.3h-1.9V47.7z"/>
	</g>
	<g>
		<path fill="#FFFFFF" d="M5.3,13.4v6.3H1.2V1.4h6.5c4.6,0,6.9,1.9,6.9,5.8c0,1.8-0.7,3.3-2,4.5c-1.3,1.1-3.1,1.7-5.3,1.7H5.3z
			 M5.3,4.5v5.7H7c2.2,0,3.3-1,3.3-2.9c0-1.9-1.1-2.8-3.3-2.8H5.3z"/>
		<path fill="#FFFFFF" d="M29.6,6.6l-5.3,14.1c-1.3,3.4-3.2,5.1-5.8,5.1c-1,0-1.8-0.1-2.4-0.3v-3.2c0.5,0.3,1.1,0.5,1.8,0.5
			c1,0,1.8-0.5,2.2-1.5l0.7-1.6L15.4,6.6h4.5l2.4,8c0.2,0.5,0.3,1.1,0.4,1.8h0.1c0.1-0.5,0.2-1.1,0.4-1.7l2.5-8H29.6z"/>
		<path fill="#FFFFFF" d="M41.3,19.2c-0.9,0.5-2.2,0.8-3.9,0.8c-2,0-3.6-0.6-4.9-1.8c-1.2-1.2-1.9-2.8-1.9-4.7c0-2.2,0.7-4,2-5.3
			C34,6.9,35.7,6.3,38,6.3c1.5,0,2.7,0.2,3.3,0.6v3.4c-0.8-0.6-1.8-0.9-2.8-0.9c-1.2,0-2.1,0.3-2.8,1c-0.7,0.7-1,1.6-1,2.8
			c0,1.2,0.3,2.1,1,2.7c0.6,0.7,1.5,1,2.7,1c1,0,2-0.3,3-0.9V19.2z"/>
		<path fill="#FFFFFF" d="M54.1,19.2c-0.9,0.5-2.2,0.8-3.9,0.8c-2,0-3.6-0.6-4.9-1.8c-1.2-1.2-1.9-2.8-1.9-4.7c0-2.2,0.7-4,2-5.3
			c1.3-1.3,3.1-1.9,5.3-1.9c1.5,0,2.7,0.2,3.3,0.6v3.4c-0.8-0.6-1.8-0.9-2.8-0.9c-1.2,0-2.1,0.3-2.8,1c-0.7,0.7-1,1.6-1,2.8
			c0,1.2,0.3,2.1,1,2.7c0.6,0.7,1.5,1,2.7,1c1,0,2-0.3,3-0.9V19.2z"/>
		<path fill="#FFFFFF" d="M70.1,19.7h-4.8l-4.1-6.4h-0.1v6.4h-4V6.6h4v6.1h0.1l4-6.1H70l-4.8,6.2L70.1,19.7z"/>
		<path fill="#FFFFFF" d="M77.8,20c-2.2,0-3.9-0.6-5.1-1.8c-1.2-1.2-1.9-2.9-1.9-5c0-2.2,0.6-3.9,1.9-5.1c1.3-1.2,3-1.8,5.3-1.8
			c2.2,0,3.9,0.6,5.1,1.8c1.2,1.2,1.9,2.8,1.9,4.9c0,2.2-0.6,3.9-1.9,5.2C81.7,19.4,80,20,77.8,20z M77.9,9.4c-1,0-1.7,0.3-2.2,1
			s-0.8,1.6-0.8,2.8c0,2.5,1,3.8,3,3.8c1.9,0,2.9-1.3,2.9-3.9C80.8,10.6,79.8,9.4,77.9,9.4z"/>
		<path fill="#FFFFFF" d="M99.3,19.7h-4v-4.9h-0.9c-0.7,0-1.4,0.6-1.9,1.9l-1.4,3h-4.5l1.9-3.7c0.6-1.1,1.4-1.8,2.4-2.1
			c-2.2-0.4-3.3-1.5-3.3-3.4c0-2.5,1.9-3.8,5.6-3.8h6.1V19.7z M95.3,12.4V9.2h-1.5c-1.4,0-2.1,0.5-2.1,1.6c0,1.1,0.7,1.6,2.1,1.6
			H95.3z"/>
		<path fill="#FFFFFF" d="M102.3,19.3v-2.9c1.3,0.6,2.5,0.9,3.8,0.9c1.8,0,2.7-0.5,2.7-1.5c0-1-1-1.5-3-1.5H104v-2.5h1.9
			c1.7,0,2.5-0.5,2.5-1.5c0-0.9-0.8-1.3-2.3-1.3c-1.1,0-2.3,0.3-3.4,0.8V6.9c1.5-0.4,2.9-0.7,4.2-0.7c3.8,0,5.7,1.2,5.7,3.5
			c0,1.6-1,2.6-3,3v0.1c1.1,0.1,1.9,0.4,2.5,1c0.6,0.6,0.9,1.3,0.9,2.1c0,2.6-2.1,3.9-6.4,3.9C104.9,19.9,103.5,19.7,102.3,19.3z"/>
		<path fill="#FFFFFF" d="M115.8,19.7V6.6h4v4.6h3.5c1.5,0,2.6,0.4,3.5,1.1c0.8,0.7,1.2,1.7,1.2,3c0,1.3-0.4,2.4-1.2,3.2
			c-0.8,0.8-2,1.2-3.4,1.2H115.8z M119.8,13.7v3.4h2c1.4,0,2-0.6,2-1.8c0-1.1-0.7-1.6-2-1.6H119.8z M133.7,19.7h-4.1V6.6h4.1V19.7z"
			/>
		<path fill="#FFFFFF" d="M149.7,19.7h-4v-4.5c-1.4,0.8-2.7,1.2-4,1.2c-3,0-4.4-1.5-4.4-4.5V6.6h3.9v4.6c0,1.3,0.6,2,1.8,2
			c0.9,0,1.8-0.3,2.7-0.8V6.6h4V19.7z"/>
		<path fill="#FFFFFF" d="M166,19.7h-4.1v-5.5h-4.5v5.5h-4V6.6h4v4.8h4.5V6.6h4.1V19.7z"/>
		<path fill="#FFFFFF" d="M180.5,19.7h-3.8v-1.9h-0.1c-0.9,1.5-2.2,2.2-3.9,2.2c-1.3,0-2.3-0.4-3-1.1c-0.7-0.7-1.1-1.7-1.1-2.9
			c0-2.5,1.5-4,4.5-4.4l3.6-0.5c0-1.4-0.8-2.1-2.3-2.1c-1.6,0-3,0.5-4.4,1.4v-3c0.6-0.3,1.3-0.5,2.3-0.8c1-0.2,1.9-0.3,2.7-0.3
			c3.7,0,5.6,1.9,5.6,5.6V19.7z M176.7,14.4v-0.9l-2.4,0.3c-1.3,0.2-2,0.8-2,1.8c0,0.5,0.2,0.8,0.5,1.1c0.3,0.3,0.8,0.4,1.3,0.4
			c0.8,0,1.4-0.3,1.9-0.8C176.5,15.8,176.7,15.2,176.7,14.4z"/>
		<path fill="#FFFFFF" d="M195.5,19.7h-4v-4.9h-0.9c-0.7,0-1.4,0.6-1.9,1.9l-1.4,3h-4.5l1.9-3.7c0.6-1.1,1.4-1.8,2.4-2.1
			c-2.2-0.4-3.3-1.5-3.3-3.4c0-2.5,1.9-3.8,5.6-3.8h6.1V19.7z M191.5,12.4V9.2h-1.5c-1.4,0-2.1,0.5-2.1,1.6c0,1.1,0.7,1.6,2.1,1.6
			H191.5z"/>
		<path fill="#FFFFFF" d="M214.7,20c-2.6,0-4.8-0.9-6.4-2.6c-1.7-1.7-2.5-3.9-2.5-6.7c0-2.9,0.8-5.2,2.5-7C210,1.9,212.3,1,215,1
			c2.6,0,4.7,0.9,6.3,2.6s2.4,4,2.4,6.8c0,2.9-0.8,5.2-2.5,7C219.6,19.1,217.4,20,214.7,20z M214.9,4.6c-1.4,0-2.6,0.5-3.5,1.6
			s-1.3,2.5-1.3,4.3c0,1.8,0.4,3.3,1.3,4.3c0.9,1.1,2,1.6,3.3,1.6c1.4,0,2.6-0.5,3.4-1.5c0.8-1,1.3-2.5,1.3-4.3
			c0-1.9-0.4-3.4-1.2-4.4C217.4,5.1,216.3,4.6,214.9,4.6z"/>
		<path fill="#FFFFFF" d="M238.3,0v3.2c-0.4,0.3-1,0.5-1.6,0.6c-1.9,0.3-3.1,0.5-3.4,0.6c-0.8,0.2-1.3,0.4-1.7,0.7
			c-0.4,0.3-0.6,0.8-0.9,1.3s-0.4,1.3-0.5,2.1h0.1c1-1.1,2.3-1.7,3.9-1.7c1.9,0,3.3,0.6,4.3,1.7c1,1.1,1.6,2.6,1.6,4.6
			c0,2.1-0.6,3.7-1.9,5c-1.3,1.2-3,1.9-5.2,1.9c-2.3,0-4-0.7-5.2-2.2c-1.2-1.4-1.8-3.5-1.8-6.3c0-1.3,0.1-2.5,0.3-3.6
			c0.2-1.1,0.5-2,0.9-2.8c0.4-0.8,0.9-1.5,1.5-2c0.6-0.5,1.2-0.9,1.8-1.2c0.6-0.3,1.2-0.4,1.8-0.6c0.6-0.1,2-0.4,4.4-0.7
			C237.3,0.5,237.9,0.2,238.3,0z M230.1,11.4c0,0.2,0,0.6,0,1.2c0,1.3,0.3,2.3,0.8,3.1c0.5,0.8,1.3,1.2,2.2,1.2c0.8,0,1.5-0.3,2.1-1
			c0.5-0.6,0.8-1.5,0.8-2.6c0-1.1-0.3-2-0.8-2.6c-0.5-0.6-1.3-0.9-2.2-0.9c-0.6,0-1.1,0.2-1.7,0.5C230.8,10.6,230.4,11,230.1,11.4z"
			/>
		<path fill="#FFFFFF" d="M264.2,24.5h-3.3v-4.8h-18V6.6h4v10.2h3.5V6.6h4.1v10.2h3.5V6.6h4.1v10.2h2.1V24.5z"/>
		<path fill="#FFFFFF" d="M279.8,19.7h-3.7v-8.6c-0.3,0.7-0.7,1.3-1.1,1.9l-4.4,6.7h-3.8V6.6h3.7v8.3c0.3-0.6,0.6-1.1,0.9-1.6
			l4.4-6.7h4V19.7z"/>
		<path fill="#FFFFFF" d="M296.1,19.7H292v-5.5h-4.5v5.5h-4V6.6h4v4.8h4.5V6.6h4.1V19.7z"/>
		<path fill="#FFFFFF" d="M310.6,19.7h-3.8v-1.9h-0.1c-0.9,1.5-2.2,2.2-3.9,2.2c-1.3,0-2.3-0.4-3-1.1c-0.7-0.7-1.1-1.7-1.1-2.9
			c0-2.5,1.5-4,4.5-4.4l3.6-0.5c0-1.4-0.8-2.1-2.3-2.1c-1.6,0-3,0.5-4.4,1.4v-3c0.6-0.3,1.3-0.5,2.3-0.8c1-0.2,1.9-0.3,2.7-0.3
			c3.7,0,5.6,1.9,5.6,5.6V19.7z M306.8,14.4v-0.9l-2.4,0.3c-1.3,0.2-2,0.8-2,1.8c0,0.5,0.2,0.8,0.5,1.1c0.3,0.3,0.8,0.4,1.3,0.4
			c0.8,0,1.4-0.3,1.9-0.8C306.6,15.8,306.8,15.2,306.8,14.4z"/>
		<path fill="#FFFFFF" d="M338.4,19.7h-3.9V9.6c0-1.2,0-2.1,0.1-3h-0.1c-0.2,0.3-0.5,0.9-0.9,1.5l-7.6,11.5H322V1.4h3.9v10.1
			c0,1.3,0,2.1-0.1,2.5h0.1c0-0.1,0.4-0.6,0.9-1.5L334,1.4h4.4V19.7z"/>
		<path fill="#FFFFFF" d="M341.8,19.3v-2.9c1.3,0.6,2.5,0.9,3.8,0.9c1.8,0,2.7-0.5,2.7-1.5c0-1-1-1.5-3-1.5h-1.8v-2.5h1.9
			c1.7,0,2.5-0.5,2.5-1.5c0-0.9-0.8-1.3-2.3-1.3c-1.1,0-2.3,0.3-3.4,0.8V6.9c1.5-0.4,2.9-0.7,4.2-0.7c3.8,0,5.7,1.2,5.7,3.5
			c0,1.6-1,2.6-3,3v0.1c1.1,0.1,1.9,0.4,2.5,1c0.6,0.6,0.9,1.3,0.9,2.1c0,2.6-2.1,3.9-6.4,3.9C344.5,19.9,343,19.7,341.8,19.3z"/>
		<path fill="#FFFFFF" d="M359.4,18.2L359.4,18.2l-0.1,7.5h-4V6.6h4v2h0.1c1-1.5,2.4-2.3,4.2-2.3c1.7,0,3,0.6,3.9,1.7
			s1.4,2.7,1.4,4.7c0,2.2-0.5,3.9-1.6,5.3s-2.5,2-4.3,2C361.5,20,360.3,19.4,359.4,18.2z M359.3,12.8v1c0,0.9,0.2,1.6,0.7,2.2
			c0.5,0.6,1.1,0.9,1.9,0.9c0.9,0,1.6-0.4,2.1-1.1c0.5-0.7,0.8-1.7,0.8-3c0-2.3-0.9-3.5-2.7-3.5c-0.8,0-1.5,0.3-2,0.9
			C359.6,10.9,359.3,11.8,359.3,12.8z"/>
		<path fill="#FFFFFF" d="M382.5,19.7h-3.8v-1.9h-0.1c-0.9,1.5-2.2,2.2-3.9,2.2c-1.3,0-2.3-0.4-3-1.1c-0.7-0.7-1.1-1.7-1.1-2.9
			c0-2.5,1.5-4,4.5-4.4l3.6-0.5c0-1.4-0.8-2.1-2.3-2.1c-1.6,0-3,0.5-4.4,1.4v-3c0.6-0.3,1.3-0.5,2.3-0.8c1-0.2,1.9-0.3,2.7-0.3
			c3.7,0,5.6,1.9,5.6,5.6V19.7z M378.7,14.4v-0.9l-2.4,0.3c-1.3,0.2-2,0.8-2,1.8c0,0.5,0.2,0.8,0.5,1.1c0.3,0.3,0.8,0.4,1.3,0.4
			c0.8,0,1.4-0.3,1.9-0.8C378.4,15.8,378.7,15.2,378.7,14.4z"/>
		<path fill="#FFFFFF" d="M399,19.7h-3.7v-8.6c-0.3,0.7-0.7,1.3-1.1,1.9l-4.4,6.7h-3.8V6.6h3.7v8.3c0.3-0.6,0.6-1.1,0.9-1.6l4.4-6.7
			h4V19.7z"/>
		<path fill="#FFFFFF" d="M415,19.7h-4.1V9.4h-2.2c-0.5,4-1.2,6.7-2.1,8.2c-0.9,1.5-2.2,2.2-3.9,2.2c-0.6,0-1.1-0.1-1.6-0.3v-2.7
			c0.3,0.1,0.6,0.2,0.9,0.2c0.8,0,1.5-0.7,2-2.2c0.5-1.5,1-4.2,1.4-8.2h9.5V19.7z"/>
		<path fill="#FFFFFF" d="M430.2,19.7h-4v-4.9h-0.9c-0.7,0-1.4,0.6-1.9,1.9l-1.4,3h-4.5l1.9-3.7c0.6-1.1,1.4-1.8,2.4-2.1
			c-2.2-0.4-3.3-1.5-3.3-3.4c0-2.5,1.9-3.8,5.6-3.8h6.1V19.7z M426.2,12.4V9.2h-1.5c-1.4,0-2.1,0.5-2.1,1.6c0,1.1,0.7,1.6,2.1,1.6
			H426.2z"/>
	</g>
</g>
</svg>
