<?xml version="1.0" encoding="utf-8"?>
<!-- Generator: Adobe Illustrator 17.1.0, SVG Export Plug-In . SVG Version: 6.00 Build 0)  -->
<!DOCTYPE svg PUBLIC "-//W3C//DTD SVG 1.1//EN" "http://www.w3.org/Graphics/SVG/1.1/DTD/svg11.dtd">
<svg version="1.1" id="Layer_1" xmlns="http://www.w3.org/2000/svg" xmlns:xlink="http://www.w3.org/1999/xlink" x="0px" y="0px"
	 viewBox="0 0 135 135" enable-background="new 0 0 135 135" xml:space="preserve">
<g>
	<path fill-rule="evenodd" clip-rule="evenodd" fill="#FFFFFF" d="M61.6,95.2c-0.2-0.3-0.4-0.6-0.6-0.8c-0.2-0.2-0.4-0.5-0.7-0.9
		c-0.3-0.4-0.5-0.6-0.6-0.8c-0.1,0.1-0.4,0.4-1,0.9c-1.3,1.2-2,2.1-2,2.7c0,0.6,0.3,1.2,1,1.6c0.6,0.4,1.3,0.6,2.1,0.6
		c0.7,0,1.3-0.1,1.8-0.4c0.5-0.2,0.7-0.6,0.7-1c0-0.4,0-0.7-0.1-1C62,95.9,61.8,95.5,61.6,95.2z"/>
	<path fill-rule="evenodd" clip-rule="evenodd" fill="#FFFFFF" d="M51.5,91.6c0.6,0,1.2-0.3,1.7-0.9c0.5-0.6,0.7-1.3,0.7-2
		c0-0.7-0.1-1.2-0.4-1.4c-0.3-0.2-0.6-0.4-1.1-0.4c-0.5,0-1,0.1-1.4,0.3c-0.4,0.2-0.8,0.5-1.1,0.8c-0.6,0.7-1,1.3-1.2,1.9
		C49.6,91,50.5,91.6,51.5,91.6z"/>
	<path fill-rule="evenodd" clip-rule="evenodd" fill="#FFFFFF" d="M81.7,103.9c-0.2,0.2-0.3,0.3-0.4,0.3c-0.1,0.1-0.2,0.2-0.4,0.4
		c-0.2,0.2-0.3,0.3-0.3,0.5c-0.2,0.4-0.3,0.8-0.3,1.3c0,0.4,0.1,0.7,0.3,0.9c0.2,0.2,0.5,0.2,0.9,0.2c0.9,0,1.6-0.6,2.2-1.7
		c0.6-1.1,0.9-2.6,1.2-4.5l-2.7,2.3C82.1,103.6,81.9,103.7,81.7,103.9z"/>
	<path fill-rule="evenodd" clip-rule="evenodd" fill="#FFFFFF" d="M38.2,86.8c-0.3-0.1-0.7-0.2-1-0.2c-1,0-1.9,0.4-2.8,1.3
		s-1.6,1.9-2.1,3.2c-0.5,1.2-0.8,2.4-0.8,3.6c0,1.4,0.5,2.1,1.4,2.1c0.7,0,1.6-0.4,2.7-1.2c1.1-0.8,1.6-1.4,1.8-1.9l1.5-6.4
		C38.8,87,38.6,86.9,38.2,86.8z"/>
	<path fill-rule="evenodd" clip-rule="evenodd" fill="#FFFFFF" d="M67.5,0C30.2,0,0,30.2,0,67.5C0,104.8,30.2,135,67.5,135
		c37.3,0,67.5-30.2,67.5-67.5C135,30.2,104.8,0,67.5,0z M85.6,36.6c2.4,0,4.9,0,7.3,0c2.4,6.3,4.9,12.6,7.3,18.9
		c0.4,1,1.9,6,2.6,6.4c-0.7-2.5-0.4-5.9-0.4-8.9c0-5.5,0-10.9,0-16.4c1.8,0,3.7,0,5.5,0c0,11.8,0,23.6,0,35.4c-2.4,0-4.9,0-7.3-0.1
		c-2.5-6.5-5-13-7.5-19.5c-0.4-1-1.8-5.7-2.5-6c0.5,5.3,0.5,11.7,0.5,17.7c0,2.6,0,5.2-0.1,7.8c-1.8,0-3.7,0-5.5,0
		C85.6,60.2,85.6,48.4,85.6,36.6z M55.4,36.6c7.6,0,15.1,0,22.7,0.1v6H55.3C55.3,40.6,55.3,38.6,55.4,36.6z M55.4,51.3
		c7.6,0,15.1,0,22.7,0.1v6H55.3C55.3,55.3,55.3,53.3,55.4,51.3z M55.4,66c7.6,0,15.1,0,22.7,0.1c0,2,0,4-0.1,6
		c-7.6,0-15.1,0-22.7-0.1C55.3,69.9,55.3,67.9,55.4,66z M77,79.3c0,0.4-0.3,0.9-0.8,1.5c-0.5,0.5-1.1,0.8-1.8,0.8
		c-0.8,0-1.2-0.4-1.2-1.2c0-0.6,0.2-1.1,0.6-1.6c0.4-0.5,0.9-0.8,1.5-0.8c0.6,0,1,0.1,1.3,0.3C76.9,78.5,77,78.8,77,79.3z
		 M27.2,67.3c1.5-2.9,2.9-5.8,4.4-8.7c2.7-5.4,5.3-10.8,8-16.2c-4,0-8,0-12-0.1c0-1.9,0-3.8,0.1-5.8c6.8,0,13.5,0,20.3,0
		c0,1.6,0,3.1,0,4.7c-1.2,2.4-2.4,4.8-3.6,7.2c-2.9,5.9-5.8,11.7-8.7,17.6c4.2,0,8.5,0,12.7,0c0,2,0,3.9,0,5.9c-7,0-14.1,0-21.1-0.1
		C27.2,70.4,27.2,68.8,27.2,67.3z M108.1,94c-1.8,1.8-3.3,3.2-4.7,4.3c-1.4,1.1-2.3,1.6-2.7,1.6c-0.8,0-1.2-0.5-1.2-1.4
		s0.2-2,0.6-3.3c0.4-1.3,0.8-2.5,1.2-3.5c0.4-1,0.6-1.7,0.6-2.1c0-0.4-0.1-0.6-0.2-0.8c-0.1-0.2-0.3-0.2-0.5-0.2
		c-0.6,0-1.3,0.4-2,1.3c-0.7,0.9-1.4,1.9-2,3.2c-1.2,2.6-2,4.7-2.4,6.4h-3.2c0-0.9,0.2-2.4,0.6-4.3l-4,3.9c-0.5,2.9-1.5,5.2-3,7
		c-0.7,0.8-1.4,1.4-2.2,1.8c-0.8,0.4-1.4,0.7-2,0.7c-0.6,0-1.1-0.1-1.6-0.2c-0.5-0.2-0.9-0.4-1.2-0.8c-0.3-0.4-0.5-0.7-0.5-1.1
		c0-0.3,0-0.6,0.1-0.7c0-0.2,0.1-0.3,0.2-0.5c0.1-0.2,0.2-0.3,0.3-0.4c0.1-0.1,0.2-0.3,0.4-0.4c0.2-0.2,0.4-0.3,0.4-0.4
		c0.1-0.1,0.3-0.2,0.6-0.4c0.3-0.2,0.5-0.4,0.5-0.4l4.6-3.5l0.5-2.8c-1.4,1.3-2.6,2.1-3.5,2.5c-0.9,0.4-1.8,0.7-2.6,0.7
		c-0.8,0-1.4-0.3-1.8-1c-0.4-0.7-0.6-1.5-0.6-2.4c0-0.7,0.1-1.4,0.3-2.2c-2,2-3.4,3.3-4.1,3.9c-1.3,1.1-2.5,1.7-3.5,1.7
		c-0.5,0-0.9-0.2-1.1-0.7c-0.2-0.4-0.4-1-0.4-1.7c0-0.5,0.2-1.6,0.5-3.2c-0.1,0.1-0.3,0.3-0.5,0.5c-0.5,0.5-0.9,0.8-1.1,1
		c-0.2,0.2-0.6,0.5-1.2,1c-0.5,0.4-1,0.8-1.3,1c-0.3,0.2-0.7,0.5-1.3,0.8c-0.5,0.3-1,0.6-1.3,0.7c-0.4,0.2-0.8,0.3-1.2,0.4
		c-0.4,0.1-0.9,0.2-1.3,0.2c-0.4,0-0.9,0-1.4-0.1c-0.5-0.1-1-0.2-1.5-0.4C55.6,98.8,55,98,55,97c0-0.1,0-0.2,0-0.2
		c-0.7,0.6-1.3,1.2-1.9,1.6c-1.4,1-2.7,1.5-4,1.5c-2.5,0-4.1-0.8-4.7-2.4c-0.2-0.6-0.3-1.4-0.3-2.3c0-0.1,0-0.1,0-0.2
		c-0.3,0.4-0.6,0.6-0.8,0.8l-0.9,0.9c-0.4,0.4-0.7,0.7-0.9,0.9c-0.2,0.2-0.5,0.4-0.8,0.7c-0.3,0.3-0.6,0.5-0.8,0.7
		c-0.2,0.2-0.5,0.3-0.7,0.5c-0.5,0.3-0.9,0.5-1.2,0.5c-0.9,0-1.4-0.7-1.4-2.2c0-0.7,0.1-1.5,0.3-2.2c-1.2,1.4-2.4,2.5-3.6,3.3
		c-1.2,0.8-2.1,1.2-2.7,1.2c-0.6,0-1.1-0.1-1.4-0.3c-0.3-0.2-0.6-0.5-0.7-0.9c-0.3-0.7-0.4-1.5-0.4-2.5s0.3-2.2,0.8-3.5
		c0.5-1.3,1.2-2.5,2.1-3.5c0.8-1.1,1.8-1.9,2.9-2.6c1.1-0.7,2-1,2.9-1s1.6,0.1,2.4,0.3l2.2-7.9c0.3-1.3,0.6-2,0.9-2.2
		c0.4-0.3,0.8-0.5,1.3-0.5c0.4,0,0.9,0,1.4,0h0.6c0,0.4-0.2,1.1-0.6,2.3c-0.7,2-1.6,5.3-2.8,9.7c-1.2,4.4-1.8,7-1.8,7.9
		c0,0.4,0,0.7,0.1,0.8c0.1,0.1,0.2,0.2,0.4,0.2c0.2,0,0.7-0.3,1.3-1c0.5-0.5,1.3-1.3,2.2-2.3c0.2-0.8,0.4-1.6,0.8-2.4
		c0.7-1.5,1.6-2.7,2.9-3.6c1.3-0.9,2.7-1.4,4.2-1.4c2.6,0,3.9,1,3.9,2.9c0,1.3-0.5,2.4-1.5,3.3c-1,0.9-2.2,1.4-3.4,1.4
		c-0.5,0-1-0.1-1.6-0.4c-0.6-0.3-1-0.7-1.4-1.3c-0.5,1-0.7,2-0.7,2.9c0,2.6,0.9,3.8,2.8,3.8c0.5,0,1.1-0.2,1.8-0.7
		c0.7-0.5,1.3-1,1.9-1.5c0.5-0.5,1.2-1.2,2.1-2c0.8-0.8,1.4-1.4,1.7-1.7v0.6c0,0,0,0,0.1-0.1c0.5-0.5,0.9-0.9,1.1-1.2
		c-0.3-0.7-0.4-1.5-0.4-2.4c0-1.3,0.4-2.4,1.2-3.2c0.8-0.8,2-1.3,3.6-1.3c0.7,0,1,0.2,1,0.6c0,0.7-0.3,1.2-0.9,1.6
		c-0.6,0.4-1.2,0.6-1.9,0.6c0.4,1.1,1,2.2,1.9,3.1c0.3,0.4,0.7,0.7,1,1c0.7,0.7,1.1,1.4,1.1,1.9c0,0.8-0.4,1.8-1.2,2.8l4.9-4v0.3
		c0.6-2.3,1-3.7,1.2-4.3c0.2-0.5,0.4-0.9,0.5-1.1c0.1-0.2,0.3-0.4,0.5-0.5c0.2-0.1,0.4-0.2,0.5-0.3c0.1-0.1,0.4-0.1,0.7-0.2
		c0.4,0,1,0,1.6,0c-1.8,5.6-2.6,9-2.6,10.1c0,0.7,0.2,1.1,0.6,1.1c0.2,0,1-0.6,2.3-1.9c1.3-1.3,2.3-2.3,3.1-3.2v1
		c0.3-0.9,0.7-1.8,1.2-2.7c0.6-1,1.2-1.8,2-2.6c0.7-0.8,1.6-1.4,2.6-1.8c1-0.4,2-0.7,3-0.7c1,0,2.7,0.2,5,0.6l-2.5,10.7
		c0.3-0.3,0.8-0.7,1.4-1.3c0.6-0.6,1-1,1.3-1.2c0.5-0.4,1-1,1.6-1.5c0.6-2.4,1.1-4.3,1.6-5.5c0.2-0.5,0.5-0.9,0.9-1.1
		c0.4-0.2,0.9-0.3,1.6-0.3h1.1c-0.8,2.8-1.4,4.8-1.8,6c0.7-1.4,1.8-2.8,3.2-4.2c0.7-0.7,1.4-1.3,2.2-1.7c0.8-0.4,1.6-0.7,2.3-0.7
		c1.1,0,1.6,0.6,1.6,1.9c0,0.6-0.4,2.1-1.2,4.4c-0.8,2.3-1.2,3.6-1.2,3.8c0,0.2,0.1,0.4,0.2,0.4c0.1,0,0.3-0.1,0.5-0.2
		c0.2-0.2,0.9-0.7,2-1.8c1.1-1,1.7-1.6,2-1.8V94z"/>
	<path fill-rule="evenodd" clip-rule="evenodd" fill="#FFFFFF" d="M84,87c-0.7,0.5-1.3,1.1-1.8,1.8c-1.1,1.6-1.6,3.3-1.6,5.1
		c0,2.1,0.5,3.2,1.6,3.2c1,0,2.2-0.8,3.6-2.5l1.9-8.1c-0.8-0.2-1.4-0.3-1.6-0.3C85.4,86.3,84.7,86.6,84,87z"/>
</g>
</svg>
